<svg width="169" height="169" viewBox="0 0 169 169" fill="none" xmlns="http://www.w3.org/2000/svg">
    <path d="M46.7162 0.366281C71.1597 0.257096 95.1713 -0.370333 119.145 0.317686C145.469 1.07316 167.645 24.1376 168.071 50.4775C168.433 72.8024 168.41 95.1416 168.085 117.468C167.689 144.637 144.582 167.651 117.387 168.014C95.2266 168.31 73.0559 168.318 50.896 168.011C23.697 167.634 0.639561 144.6 0.253299 117.408C-0.0614726 95.2479 -0.111624 73.0751 0.267392 50.9174C0.68522 26.4908 18.9887 4.09115 46.7162 0.366281ZM89.5507 102.153C91.1989 105.393 92.7121 108.713 94.5714 111.827C95.1863 112.856 96.6571 113.919 97.799 113.992C101.866 114.253 105.959 114.094 110.864 114.094C106.543 105.823 102.602 98.2805 98.6868 90.786C107.682 84.3931 110.633 77.305 108.058 67.5091C105.948 59.4851 99.9673 55.2002 92.1537 54.6726C82.2952 54.007 72.3577 54.512 62.4499 54.512C62.4499 74.4265 62.4499 94.1291 62.4499 113.851C66.8062 113.851 70.8829 113.851 75.4603 113.851C75.4603 106.735 75.4603 99.8501 75.4603 93.0417C84.4973 92.1752 84.4973 92.1751 88.3136 99.7107C88.6123 100.3 88.9092 100.891 89.5507 102.153Z" fill="#040313"/>
    <path d="M94.7766 70.8846C95.5033 78.7617 93.2071 81.797 85.9019 82.5602C82.6366 82.9014 79.306 82.6179 75.6417 82.6179C75.6417 76.7439 75.6417 71.0567 75.6417 64.8368C82.3427 65.9389 90.2511 61.7393 94.7766 70.8846Z" fill="#0B0A19"/>
</svg>
